<?xml version="1.0" standalone="no"?>
<!DOCTYPE svg PUBLIC "-//W3C//DTD SVG 20010904//EN"
 "http://www.w3.org/TR/2001/REC-SVG-20010904/DTD/svg10.dtd">
<svg version="1.0" xmlns="http://www.w3.org/2000/svg"
 width="700.000000pt" height="700.000000pt" viewBox="0 0 700.000000 700.000000"
 preserveAspectRatio="xMidYMid meet">
<metadata>
Created by potrace 1.14, written by Peter Selinger 2001-2017
</metadata>
<g transform="translate(0.000000,700.000000) scale(0.100000,-0.100000)"
fill="#000000" stroke="none">
<path d="M3367 6754 c-1 -1 -42 -5 -92 -9 -49 -3 -101 -8 -115 -9 -14 -2 -56
-7 -95 -10 -38 -4 -81 -9 -95 -11 -14 -2 -45 -7 -70 -10 -156 -19 -230 -72
-265 -189 -8 -25 -29 -161 -47 -301 l-33 -255 -53 -25 c-62 -29 -62 -29 -87
-10 -59 46 -385 293 -411 311 -70 49 -157 57 -232 21 -45 -22 -182 -111 -192
-126 -3 -4 -21 -18 -40 -31 -56 -40 -262 -222 -356 -317 -171 -173 -382 -437
-425 -534 -35 -77 -40 -153 -14 -215 13 -31 75 -119 152 -214 33 -41 203 -263
203 -265 0 -1 -9 -23 -20 -48 -21 -47 -30 -53 -90 -61 -45 -6 -126 -16 -170
-21 -19 -3 -57 -7 -85 -11 -27 -4 -61 -8 -75 -9 -14 -2 -54 -6 -90 -10 -110
-12 -180 -52 -224 -128 -24 -41 -59 -187 -71 -297 -3 -30 -8 -75 -11 -100 -13
-112 -18 -400 -10 -535 9 -136 24 -307 31 -345 1 -8 8 -49 15 -90 22 -129 67
-205 146 -246 26 -14 142 -37 244 -49 25 -2 65 -7 90 -10 25 -3 54 -7 65 -10
11 -2 47 -7 79 -11 33 -3 67 -8 75 -9 9 -2 24 -4 34 -4 11 -1 25 -18 38 -48
19 -43 19 -51 7 -73 -14 -25 -222 -296 -257 -335 -92 -104 -118 -194 -86 -301
32 -109 235 -365 495 -624 284 -284 502 -445 610 -451 64 -4 132 21 190 68
109 90 393 303 403 303 27 0 127 -50 127 -63 0 -16 36 -301 45 -357 3 -14 6
-45 9 -70 12 -127 34 -180 97 -234 49 -42 100 -59 229 -80 301 -48 604 -54
940 -21 171 17 337 52 375 78 50 34 93 89 104 133 6 23 24 151 41 285 17 134
33 254 36 266 4 21 21 32 101 63 18 8 43 -7 155 -92 73 -56 179 -136 235 -179
158 -120 228 -124 388 -22 217 140 577 479 740 698 17 22 35 46 42 53 30 32
126 176 144 216 22 51 27 123 12 177 -14 49 -40 88 -207 304 -105 136 -145
196 -142 210 6 25 31 93 37 99 4 4 99 18 209 31 163 19 350 47 375 57 96 36
135 99 164 263 37 210 46 338 46 630 0 235 -5 338 -25 480 -26 188 -40 226
-103 290 -50 50 -73 60 -152 72 -16 3 -35 9 -42 14 -7 7 -14 6 -18 -1 -4 -6
-12 -7 -18 -3 -7 5 -21 8 -32 8 -11 0 -23 4 -27 10 -5 6 -8 6 -8 -2 0 -9 -7
-10 -22 -4 -13 4 -29 6 -37 3 -8 -2 -11 -1 -8 4 3 5 -22 10 -55 11 -33 1 -67
5 -76 9 -9 4 -30 6 -46 5 -21 -2 -26 1 -20 11 6 11 5 11 -8 0 -13 -10 -17 -10
-21 0 -3 7 -6 8 -6 2 -1 -6 -12 -9 -26 -6 -14 2 -22 8 -19 13 3 5 -1 6 -9 3
-10 -3 -21 11 -36 45 -11 27 -21 54 -21 60 0 6 75 108 166 228 91 119 172 230
180 246 22 42 29 127 14 173 -11 36 -104 187 -133 216 -7 7 -19 22 -27 34 -17
24 -84 105 -145 174 -70 80 -318 324 -385 379 -36 30 -67 57 -70 60 -25 31
-238 175 -285 193 -42 15 -121 18 -142 5 -7 -5 -13 -5 -13 0 0 4 -4 3 -8 -4
-4 -6 -14 -13 -22 -15 -8 -2 -23 -12 -32 -22 -10 -10 -18 -16 -18 -12 0 4 -15
-7 -32 -24 -18 -16 -39 -28 -46 -25 -7 3 -10 0 -7 -5 3 -5 -5 -15 -19 -21 -14
-7 -23 -16 -20 -20 3 -5 0 -9 -6 -9 -6 0 -23 -11 -38 -25 -15 -14 -33 -23 -40
-20 -7 3 -11 1 -8 -4 8 -13 -62 -63 -76 -55 -6 4 -8 3 -5 -4 9 -13 -72 -74
-87 -65 -6 3 -8 3 -4 -2 10 -11 -11 -35 -31 -35 -8 0 -39 10 -68 22 -39 16
-53 27 -54 42 0 12 -2 30 -4 41 -2 11 -8 61 -14 110 -13 105 -21 160 -26 195
-2 14 -7 50 -10 80 -15 131 -43 193 -106 241 -57 43 -145 66 -314 85 -27 2
-59 7 -70 9 -49 10 -519 27 -528 19z m332 -2195 c215 -43 387 -136 547 -294
158 -155 253 -333 299 -560 14 -65 14 -282 0 -360 -39 -227 -138 -421 -299
-580 -165 -164 -345 -255 -596 -300 -55 -10 -238 -8 -310 4 -232 38 -434 144
-596 312 -254 265 -352 626 -269 987 96 414 479 755 895 799 30 3 57 7 59 9 8
7 217 -6 270 -17z"/>
</g>
</svg>
